<?xml version="1.0" standalone="no"?>
<svg xmlns:xlink="http://www.w3.org/1999/xlink" id="wave" style="transform:rotate(0deg); transition: 0.3s" viewBox="0 0 1440 490" version="1.1" xmlns="http://www.w3.org/2000/svg"><defs><linearGradient id="sw-gradient-0" x1="0" x2="0" y1="1" y2="0"><stop stop-color="rgba(243, 106, 62, 1)" offset="0%"/><stop stop-color="rgba(255, 179, 11, 1)" offset="100%"/></linearGradient></defs><path style="transform:translate(0, 0px); opacity:1" fill="url(#sw-gradient-0)" d="M0,294L48,310.3C96,327,192,359,288,334.8C384,310,480,229,576,196C672,163,768,180,864,155.2C960,131,1056,65,1152,65.3C1248,65,1344,131,1440,204.2C1536,278,1632,359,1728,375.7C1824,392,1920,343,2016,285.8C2112,229,2208,163,2304,130.7C2400,98,2496,98,2592,147C2688,196,2784,294,2880,334.8C2976,376,3072,359,3168,367.5C3264,376,3360,408,3456,375.7C3552,343,3648,245,3744,220.5C3840,196,3936,245,4032,294C4128,343,4224,392,4320,392C4416,392,4512,343,4608,343C4704,343,4800,392,4896,416.5C4992,441,5088,441,5184,441C5280,441,5376,441,5472,367.5C5568,294,5664,147,5760,89.8C5856,33,5952,65,6048,138.8C6144,212,6240,327,6336,375.7C6432,425,6528,408,6624,375.7C6720,343,6816,294,6864,269.5L6912,245L6912,490L6864,490C6816,490,6720,490,6624,490C6528,490,6432,490,6336,490C6240,490,6144,490,6048,490C5952,490,5856,490,5760,490C5664,490,5568,490,5472,490C5376,490,5280,490,5184,490C5088,490,4992,490,4896,490C4800,490,4704,490,4608,490C4512,490,4416,490,4320,490C4224,490,4128,490,4032,490C3936,490,3840,490,3744,490C3648,490,3552,490,3456,490C3360,490,3264,490,3168,490C3072,490,2976,490,2880,490C2784,490,2688,490,2592,490C2496,490,2400,490,2304,490C2208,490,2112,490,2016,490C1920,490,1824,490,1728,490C1632,490,1536,490,1440,490C1344,490,1248,490,1152,490C1056,490,960,490,864,490C768,490,672,490,576,490C480,490,384,490,288,490C192,490,96,490,48,490L0,490Z"/></svg>