<svg xmlns="http://www.w3.org/2000/svg" viewBox="0 0 1440 320" preserveAspectRation="none">
<path fill="#FFFFFF" fill-opacity="1" class="shape-fill" d="M0,256L26.7,234.7C53.3,213,107,171,160,170.7C213.3,171,267,213,320,192C373.3,171,427,85,480,74.7C533.3,64,587,128,640,133.3C693.3,139,747,85,800,74.7C853.3,64,907,96,960,96C1013.3,96,1067,64,1120,85.3C1173.3,107,1227,181,1280,186.7C1333.3,192,1387,128,1413,96L1440,64L1440,320L1413.3,320C1386.7,320,1333,320,1280,320C1226.7,320,1173,320,1120,320C1066.7,320,1013,320,960,320C906.7,320,853,320,800,320C746.7,320,693,320,640,320C586.7,320,533,320,480,320C426.7,320,373,320,320,320C266.7,320,213,320,160,320C106.7,320,53,320,27,320L0,320Z">
</path>
</svg>